<svg width="312" height="162" viewBox="0 0 312 162" fill="none" xmlns="http://www.w3.org/2000/svg">
<g filter="url(#filter0_d)">
<rect x="5" y="1" width="302" height="152" stroke="#421010" stroke-width="2" stroke-miterlimit="2.3662" stroke-linecap="round" stroke-linejoin="bevel" stroke-dasharray="200 200"/>
</g>
<g filter="url(#filter1_i)">
<path d="M108.277 97.7812L110.902 84.9375H113.844L109.906 102H107.07L103.824 89.543L100.508 102H97.6602L93.7227 84.9375H96.6641L99.3125 97.7578L102.57 84.9375H105.055L108.277 97.7812ZM129.847 98.0273H123.237L121.855 102H118.773L125.218 84.9375H127.878L134.335 102H131.241L129.847 98.0273ZM124.07 95.6367H129.015L126.542 88.5586L124.07 95.6367ZM147.35 95.4258H144.045V102H141.08V84.9375H147.08C149.049 84.9375 150.569 85.3789 151.639 86.2617C152.709 87.1445 153.245 88.4219 153.245 90.0938C153.245 91.2344 152.967 92.1914 152.412 92.9648C151.866 93.7305 151.1 94.3203 150.116 94.7344L153.948 101.848V102H150.772L147.35 95.4258ZM144.045 93.0469H147.092C148.092 93.0469 148.873 92.7969 149.436 92.2969C149.998 91.7891 150.28 91.0977 150.28 90.2227C150.28 89.3086 150.018 88.6016 149.495 88.1016C148.979 87.6016 148.205 87.3438 147.174 87.3281H144.045V93.0469ZM169.775 97.6055C169.775 96.8555 169.509 96.2773 168.978 95.8711C168.455 95.4648 167.505 95.0547 166.13 94.6406C164.755 94.2266 163.662 93.7656 162.849 93.2578C161.295 92.2812 160.517 91.0078 160.517 89.4375C160.517 88.0625 161.076 86.9297 162.193 86.0391C163.318 85.1484 164.775 84.7031 166.564 84.7031C167.752 84.7031 168.81 84.9219 169.74 85.3594C170.67 85.7969 171.4 86.4219 171.931 87.2344C172.463 88.0391 172.728 88.9336 172.728 89.918H169.775C169.775 89.0273 169.494 88.332 168.931 87.832C168.377 87.3242 167.58 87.0703 166.541 87.0703C165.572 87.0703 164.818 87.2773 164.279 87.6914C163.748 88.1055 163.482 88.6836 163.482 89.4258C163.482 90.0508 163.771 90.5742 164.349 90.9961C164.927 91.4102 165.88 91.8164 167.209 92.2148C168.537 92.6055 169.603 93.0547 170.408 93.5625C171.213 94.0625 171.802 94.6406 172.177 95.2969C172.552 95.9453 172.74 96.707 172.74 97.582C172.74 99.0039 172.193 100.137 171.099 100.98C170.013 101.816 168.537 102.234 166.67 102.234C165.435 102.234 164.298 102.008 163.259 101.555C162.228 101.094 161.423 100.461 160.845 99.6562C160.275 98.8516 159.99 97.9141 159.99 96.8438H162.955C162.955 97.8125 163.275 98.5625 163.916 99.0938C164.556 99.625 165.474 99.8906 166.67 99.8906C167.701 99.8906 168.474 99.6836 168.99 99.2695C169.513 98.8477 169.775 98.293 169.775 97.6055ZM189.692 98.0273H183.083L181.7 102H178.618L185.063 84.9375H187.723L194.18 102H191.087L189.692 98.0273ZM183.915 95.6367H188.86L186.387 88.5586L183.915 95.6367ZM213.84 97.7812L216.465 84.9375H219.406L215.469 102H212.633L209.387 89.543L206.07 102H203.223L199.285 84.9375H202.227L204.875 97.7578L208.133 84.9375H210.617L213.84 97.7812Z" fill="url(#paint0_linear)"/>
</g>
<path d="M108.277 97.7812L107.792 97.9029L108.767 97.8814L108.277 97.7812ZM110.902 84.9375V84.4375H110.494L110.412 84.8374L110.902 84.9375ZM113.844 84.9375L114.331 85.0499L114.472 84.4375H113.844V84.9375ZM109.906 102V102.5H110.304L110.393 102.112L109.906 102ZM107.07 102L106.586 102.126L106.684 102.5H107.07V102ZM103.824 89.543L104.308 89.4169L103.829 87.58L103.341 89.4143L103.824 89.543ZM100.508 102V102.5H100.892L100.991 102.129L100.508 102ZM97.6602 102L97.173 102.112L97.2624 102.5H97.6602V102ZM93.7227 84.9375V84.4375H93.0941L93.2355 85.0499L93.7227 84.9375ZM96.6641 84.9375L97.1537 84.8363L97.0713 84.4375H96.6641V84.9375ZM99.3125 97.7578L98.8228 97.859L99.7971 97.881L99.3125 97.7578ZM102.57 84.9375V84.4375H102.181L102.086 84.8144L102.57 84.9375ZM105.055 84.9375L105.54 84.8158L105.445 84.4375H105.055V84.9375ZM108.767 97.8814L111.392 85.0376L110.412 84.8374L107.787 97.6811L108.767 97.8814ZM110.902 85.4375H113.844V84.4375H110.902V85.4375ZM113.357 84.8251L109.419 101.888L110.393 102.112L114.331 85.0499L113.357 84.8251ZM109.906 101.5H107.07V102.5H109.906V101.5ZM107.554 101.874L104.308 89.4169L103.34 89.669L106.586 102.126L107.554 101.874ZM103.341 89.4143L100.025 101.871L100.991 102.129L104.307 89.6716L103.341 89.4143ZM100.508 101.5H97.6602V102.5H100.508V101.5ZM98.1474 101.888L94.2099 84.8251L93.2355 85.0499L97.173 102.112L98.1474 101.888ZM93.7227 85.4375H96.6641V84.4375H93.7227V85.4375ZM96.1744 85.0387L98.8228 97.859L99.8022 97.6567L97.1537 84.8363L96.1744 85.0387ZM99.7971 97.881L103.055 85.0606L102.086 84.8144L98.8279 97.6347L99.7971 97.881ZM102.57 85.4375H105.055V84.4375H102.57V85.4375ZM104.57 85.0592L107.792 97.9029L108.762 97.6596L105.54 84.8158L104.57 85.0592ZM129.847 98.0273L130.319 97.8617L130.201 97.5273H129.847V98.0273ZM123.237 98.0273V97.5273H122.882L122.765 97.863L123.237 98.0273ZM121.855 102V102.5H122.21L122.327 102.164L121.855 102ZM118.773 102L118.305 101.823L118.049 102.5H118.773V102ZM125.218 84.9375V84.4375H124.872L124.75 84.7608L125.218 84.9375ZM127.878 84.9375L128.346 84.7605L128.224 84.4375H127.878V84.9375ZM134.335 102V102.5H135.059L134.803 101.823L134.335 102ZM131.241 102L130.77 102.166L130.887 102.5H131.241V102ZM124.07 95.6367L123.598 95.4718L123.365 96.1367H124.07V95.6367ZM129.015 95.6367V96.1367H129.719L129.487 95.4718L129.015 95.6367ZM126.542 88.5586L127.014 88.3937L126.542 87.0425L126.07 88.3937L126.542 88.5586ZM129.847 97.5273H123.237V98.5273H129.847V97.5273ZM122.765 97.863L121.382 101.836L122.327 102.164L123.71 98.1917L122.765 97.863ZM121.855 101.5H118.773V102.5H121.855V101.5ZM119.24 102.177L125.686 85.1142L124.75 84.7608L118.305 101.823L119.24 102.177ZM125.218 85.4375H127.878V84.4375H125.218V85.4375ZM127.41 85.1145L133.868 102.177L134.803 101.823L128.346 84.7605L127.41 85.1145ZM134.335 101.5H131.241V102.5H134.335V101.5ZM131.713 101.834L130.319 97.8617L129.375 98.193L130.77 102.166L131.713 101.834ZM124.07 96.1367H129.015V95.1367H124.07V96.1367ZM129.487 95.4718L127.014 88.3937L126.07 88.7235L128.543 95.8016L129.487 95.4718ZM126.07 88.3937L123.598 95.4718L124.542 95.8016L127.014 88.7235L126.07 88.3937ZM147.35 95.4258L147.794 95.1949L147.653 94.9258H147.35V95.4258ZM144.045 95.4258V94.9258H143.545V95.4258H144.045ZM144.045 102V102.5H144.545V102H144.045ZM141.08 102H140.58V102.5H141.08V102ZM141.08 84.9375V84.4375H140.58V84.9375H141.08ZM152.412 92.9648L152.006 92.6734L152.006 92.6742L152.412 92.9648ZM150.116 94.7344L149.922 94.2735L149.414 94.4869L149.675 94.9715L150.116 94.7344ZM153.948 101.848H154.448V101.722L154.388 101.611L153.948 101.848ZM153.948 102V102.5H154.448V102H153.948ZM150.772 102L150.328 102.231L150.468 102.5H150.772V102ZM144.045 93.0469H143.545V93.5469H144.045V93.0469ZM149.436 92.2969L149.768 92.6706L149.771 92.668L149.436 92.2969ZM149.495 88.1016L149.146 88.4605L149.149 88.4631L149.495 88.1016ZM147.174 87.3281L147.182 86.8281H147.174V87.3281ZM144.045 87.3281V86.8281H143.545V87.3281H144.045ZM147.35 94.9258H144.045V95.9258H147.35V94.9258ZM143.545 95.4258V102H144.545V95.4258H143.545ZM144.045 101.5H141.08V102.5H144.045V101.5ZM141.58 102V84.9375H140.58V102H141.58ZM141.08 85.4375H147.08V84.4375H141.08V85.4375ZM147.08 85.4375C148.981 85.4375 150.371 85.8641 151.321 86.6474L151.957 85.876C150.766 84.8937 149.118 84.4375 147.08 84.4375V85.4375ZM151.321 86.6474C152.252 87.4157 152.745 88.5374 152.745 90.0938H153.745C153.745 88.3064 153.166 86.8734 151.957 85.876L151.321 86.6474ZM152.745 90.0938C152.745 91.1511 152.489 92.0007 152.006 92.6734L152.819 93.2562C153.446 92.3821 153.745 91.3177 153.745 90.0938H152.745ZM152.006 92.6742C151.52 93.3547 150.833 93.8904 149.922 94.2735L150.309 95.1953C151.367 94.7502 152.212 94.1063 152.819 93.2555L152.006 92.6742ZM149.675 94.9715L153.507 102.085L154.388 101.611L150.556 94.4972L149.675 94.9715ZM153.448 101.848V102H154.448V101.848H153.448ZM153.948 101.5H150.772V102.5H153.948V101.5ZM151.215 101.769L147.794 95.1949L146.906 95.6566L150.328 102.231L151.215 101.769ZM144.045 93.5469H147.092V92.5469H144.045V93.5469ZM147.092 93.5469C148.174 93.5469 149.088 93.2755 149.768 92.6706L149.104 91.9232C148.659 92.3182 148.011 92.5469 147.092 92.5469V93.5469ZM149.771 92.668C150.455 92.0504 150.78 91.215 150.78 90.2227H149.78C149.78 90.9803 149.542 91.5278 149.101 91.9257L149.771 92.668ZM150.78 90.2227C150.78 89.2101 150.487 88.3577 149.84 87.74L149.149 88.4631C149.549 88.8454 149.78 89.4071 149.78 90.2227H150.78ZM149.843 87.7426C149.202 87.1218 148.285 86.8449 147.182 86.8282L147.167 87.8281C148.126 87.8426 148.755 88.0813 149.146 88.4605L149.843 87.7426ZM147.174 86.8281H144.045V87.8281H147.174V86.8281ZM143.545 87.3281V93.0469H144.545V87.3281H143.545ZM168.978 95.8711L168.672 96.2661L168.674 96.2683L168.978 95.8711ZM162.849 93.2578L162.583 93.6812L162.584 93.6818L162.849 93.2578ZM162.193 86.0391L161.883 85.647L161.881 85.6481L162.193 86.0391ZM171.931 87.2344L171.513 87.508L171.514 87.5099L171.931 87.2344ZM172.728 89.918V90.418H173.228V89.918H172.728ZM169.775 89.918H169.275V90.418H169.775V89.918ZM168.931 87.832L168.594 88.2009L168.599 88.2057L168.931 87.832ZM164.279 87.6914L163.974 87.2949L163.972 87.297L164.279 87.6914ZM164.349 90.9961L164.054 91.4L164.058 91.4026L164.349 90.9961ZM167.209 92.2148L167.065 92.6938L167.068 92.6945L167.209 92.2148ZM170.408 93.5625L170.141 93.9854L170.144 93.9872L170.408 93.5625ZM172.177 95.2969L171.743 95.5449L171.745 95.5472L172.177 95.2969ZM171.099 100.98L171.404 101.377L171.405 101.376L171.099 100.98ZM163.259 101.555L163.055 102.011L163.06 102.013L163.259 101.555ZM160.845 99.6562L160.437 99.9454L160.439 99.948L160.845 99.6562ZM159.99 96.8438V96.3438H159.49V96.8438H159.99ZM162.955 96.8438H163.455V96.3438H162.955V96.8438ZM168.99 99.2695L169.303 99.6594L169.304 99.6588L168.99 99.2695ZM170.275 97.6055C170.275 96.7214 169.953 95.9872 169.282 95.4739L168.674 96.2683C169.066 96.5675 169.275 96.9896 169.275 97.6055H170.275ZM169.285 95.4761C168.683 95.009 167.656 94.5778 166.275 94.1619L165.986 95.1194C167.355 95.5316 168.227 95.9207 168.672 96.2661L169.285 95.4761ZM166.275 94.1619C164.923 93.7549 163.875 93.3095 163.114 92.8338L162.584 93.6818C163.448 94.2217 164.588 94.6982 165.986 95.1194L166.275 94.1619ZM163.115 92.8344C161.677 91.9312 161.017 90.8043 161.017 89.4375H160.017C160.017 91.2113 160.912 92.6313 162.583 93.6812L163.115 92.8344ZM161.017 89.4375C161.017 88.2215 161.501 87.2301 162.505 86.43L161.881 85.6481C160.65 86.6293 160.017 87.9035 160.017 89.4375H161.017ZM162.503 86.4311C163.52 85.6262 164.859 85.2031 166.564 85.2031V84.2031C164.691 84.2031 163.116 84.6707 161.883 85.647L162.503 86.4311ZM166.564 85.2031C167.689 85.2031 168.673 85.4102 169.527 85.8118L169.953 84.907C168.947 84.4336 167.814 84.2031 166.564 84.2031V85.2031ZM169.527 85.8118C170.378 86.2123 171.035 86.7776 171.513 87.508L172.35 86.9608C171.765 86.0662 170.961 85.3815 169.953 84.907L169.527 85.8118ZM171.514 87.5099C171.99 88.231 172.228 89.0294 172.228 89.918H173.228C173.228 88.8378 172.935 87.8471 172.349 86.9589L171.514 87.5099ZM172.728 89.418H169.775V90.418H172.728V89.418ZM170.275 89.918C170.275 88.9132 169.952 88.0707 169.263 87.4583L168.599 88.2057C169.035 88.5933 169.275 89.1415 169.275 89.918H170.275ZM169.269 87.4632C168.592 86.8434 167.657 86.5703 166.541 86.5703V87.5703C167.503 87.5703 168.161 87.805 168.594 88.2008L169.269 87.4632ZM166.541 86.5703C165.507 86.5703 164.631 86.7905 163.974 87.2949L164.583 88.0879C165.005 87.7642 165.636 87.5703 166.541 87.5703V86.5703ZM163.972 87.297C163.305 87.8164 162.982 88.5475 162.982 89.4258H163.982C163.982 88.8197 164.19 88.3946 164.586 88.0858L163.972 87.297ZM162.982 89.4258C162.982 90.2353 163.369 90.8996 164.054 91.4L164.644 90.5922C164.173 90.2488 163.982 89.8663 163.982 89.4258H162.982ZM164.058 91.4026C164.706 91.8664 165.724 92.2915 167.065 92.6938L167.352 91.7359C166.037 91.3413 165.149 90.9539 164.64 90.5896L164.058 91.4026ZM167.068 92.6945C168.37 93.0775 169.389 93.5106 170.141 93.9853L170.675 93.1397C169.818 92.5988 168.704 92.1335 167.35 91.7352L167.068 92.6945ZM170.144 93.9872C170.896 94.4543 171.419 94.9768 171.743 95.5449L172.611 95.0488C172.186 94.3044 171.529 93.6707 170.672 93.1378L170.144 93.9872ZM171.745 95.5472C172.069 96.1076 172.24 96.78 172.24 97.582H173.24C173.24 96.6341 173.036 95.783 172.61 95.0466L171.745 95.5472ZM172.24 97.582C172.24 98.8542 171.761 99.8387 170.794 100.585L171.405 101.376C172.625 100.435 173.24 99.1536 173.24 97.582H172.24ZM170.794 100.584C169.823 101.332 168.466 101.734 166.67 101.734V102.734C168.608 102.734 170.204 102.301 171.404 101.377L170.794 100.584ZM166.67 101.734C165.498 101.734 164.43 101.52 163.459 101.096L163.06 102.013C164.167 102.496 165.373 102.734 166.67 102.734V101.734ZM163.463 101.098C162.501 100.668 161.771 100.088 161.251 99.3645L160.439 99.948C161.076 100.834 161.955 101.519 163.055 102.011L163.463 101.098ZM161.253 99.3671C160.748 98.6542 160.49 97.8198 160.49 96.8438H159.49C159.49 98.0084 159.802 99.0489 160.437 99.9454L161.253 99.3671ZM159.99 97.3438H162.955V96.3438H159.99V97.3438ZM162.455 96.8438C162.455 97.9341 162.822 98.8363 163.596 99.4786L164.235 98.7089C163.728 98.2887 163.455 97.6909 163.455 96.8438H162.455ZM163.596 99.4786C164.359 100.111 165.407 100.391 166.67 100.391V99.3906C165.541 99.3906 164.754 99.1392 164.235 98.7089L163.596 99.4786ZM166.67 100.391C167.755 100.391 168.661 100.175 169.303 99.6594L168.677 98.8797C168.288 99.1922 167.647 99.3906 166.67 99.3906V100.391ZM169.304 99.6588C169.948 99.1396 170.275 98.4402 170.275 97.6055H169.275C169.275 98.1457 169.079 98.5557 168.676 98.8802L169.304 99.6588ZM189.692 98.0273L190.164 97.8617L190.047 97.5273H189.692V98.0273ZM183.083 98.0273V97.5273H182.727L182.611 97.863L183.083 98.0273ZM181.7 102V102.5H182.055L182.172 102.164L181.7 102ZM178.618 102L178.15 101.823L177.895 102.5H178.618V102ZM185.063 84.9375V84.4375H184.718L184.596 84.7608L185.063 84.9375ZM187.723 84.9375L188.191 84.7605L188.069 84.4375H187.723V84.9375ZM194.18 102V102.5H194.904L194.648 101.823L194.18 102ZM191.087 102L190.615 102.166L190.732 102.5H191.087V102ZM183.915 95.6367L183.443 95.4718L183.211 96.1367H183.915V95.6367ZM188.86 95.6367V96.1367H189.564L189.332 95.4718L188.86 95.6367ZM186.387 88.5586L186.86 88.3937L186.387 87.0425L185.915 88.3937L186.387 88.5586ZM189.692 97.5273H183.083V98.5273H189.692V97.5273ZM182.611 97.863L181.228 101.836L182.172 102.164L183.555 98.1917L182.611 97.863ZM181.7 101.5H178.618V102.5H181.7V101.5ZM179.086 102.177L185.531 85.1142L184.596 84.7608L178.15 101.823L179.086 102.177ZM185.063 85.4375H187.723V84.4375H185.063V85.4375ZM187.256 85.1145L193.713 102.177L194.648 101.823L188.191 84.7605L187.256 85.1145ZM194.18 101.5H191.087V102.5H194.18V101.5ZM191.558 101.834L190.164 97.8617L189.22 98.193L190.615 102.166L191.558 101.834ZM183.915 96.1367H188.86V95.1367H183.915V96.1367ZM189.332 95.4718L186.86 88.3937L185.915 88.7235L188.388 95.8016L189.332 95.4718ZM185.915 88.3937L183.443 95.4718L184.387 95.8016L186.86 88.7235L185.915 88.3937ZM213.84 97.7812L213.355 97.9029L214.33 97.8814L213.84 97.7812ZM216.465 84.9375V84.4375H216.057L215.975 84.8374L216.465 84.9375ZM219.406 84.9375L219.893 85.0499L220.035 84.4375H219.406V84.9375ZM215.469 102V102.5H215.867L215.956 102.112L215.469 102ZM212.633 102L212.149 102.126L212.246 102.5H212.633V102ZM209.387 89.543L209.871 89.4169L209.392 87.58L208.904 89.4143L209.387 89.543ZM206.07 102V102.5H206.455L206.553 102.129L206.07 102ZM203.223 102L202.735 102.112L202.825 102.5H203.223V102ZM199.285 84.9375V84.4375H198.657L198.798 85.0499L199.285 84.9375ZM202.227 84.9375L202.716 84.8363L202.634 84.4375H202.227V84.9375ZM204.875 97.7578L204.385 97.859L205.36 97.881L204.875 97.7578ZM208.133 84.9375V84.4375H207.744L207.648 84.8144L208.133 84.9375ZM210.617 84.9375L211.102 84.8158L211.007 84.4375H210.617V84.9375ZM214.33 97.8814L216.955 85.0376L215.975 84.8374L213.35 97.6811L214.33 97.8814ZM216.465 85.4375H219.406V84.4375H216.465V85.4375ZM218.919 84.8251L214.982 101.888L215.956 102.112L219.893 85.0499L218.919 84.8251ZM215.469 101.5H212.633V102.5H215.469V101.5ZM213.117 101.874L209.871 89.4169L208.903 89.669L212.149 102.126L213.117 101.874ZM208.904 89.4143L205.587 101.871L206.553 102.129L209.87 89.6716L208.904 89.4143ZM206.07 101.5H203.223V102.5H206.07V101.5ZM203.71 101.888L199.772 84.8251L198.798 85.0499L202.735 102.112L203.71 101.888ZM199.285 85.4375H202.227V84.4375H199.285V85.4375ZM201.737 85.0387L204.385 97.859L205.365 97.6567L202.716 84.8363L201.737 85.0387ZM205.36 97.881L208.617 85.0606L207.648 84.8144L204.39 97.6347L205.36 97.881ZM208.133 85.4375H210.617V84.4375H208.133V85.4375ZM210.132 85.0592L213.355 97.9029L214.325 97.6596L211.102 84.8158L210.132 85.0592Z" fill="#421010"/>
<g filter="url(#filter2_i)">
<path d="M80.4406 66.8516H73.8313V80H67.9016V45.875H79.9016C83.8391 45.875 86.8781 46.7578 89.0188 48.5234C91.1594 50.2891 92.2297 52.8438 92.2297 56.1875C92.2297 58.4688 91.675 60.3828 90.5656 61.9297C89.4719 63.4609 87.9406 64.6406 85.9719 65.4688L93.6359 79.6953V80H87.2844L80.4406 66.8516ZM73.8313 62.0938H79.925C81.925 62.0938 83.4875 61.5938 84.6125 60.5938C85.7375 59.5781 86.3 58.1953 86.3 56.4453C86.3 54.6172 85.7766 53.2031 84.7297 52.2031C83.6984 51.2031 82.1516 50.6875 80.0891 50.6562H73.8313V62.0938ZM134.689 63.8281C134.689 67.1719 134.111 70.1094 132.955 72.6406C131.798 75.1562 130.142 77.0938 127.986 78.4531C125.845 79.7969 123.377 80.4688 120.58 80.4688C117.814 80.4688 115.345 79.7969 113.173 78.4531C111.017 77.0938 109.345 75.1641 108.158 72.6641C106.986 70.1641 106.392 67.2812 106.377 64.0156V62.0938C106.377 58.7656 106.963 55.8281 108.134 53.2812C109.322 50.7344 110.986 48.7891 113.127 47.4453C115.283 46.0859 117.752 45.4062 120.533 45.4062C123.314 45.4062 125.775 46.0781 127.916 47.4219C130.072 48.75 131.736 50.6719 132.908 53.1875C134.08 55.6875 134.673 58.6016 134.689 61.9297V63.8281ZM128.759 62.0469C128.759 58.2656 128.041 55.3672 126.603 53.3516C125.181 51.3359 123.158 50.3281 120.533 50.3281C117.97 50.3281 115.963 51.3359 114.509 53.3516C113.072 55.3516 112.338 58.1875 112.306 61.8594V63.8281C112.306 67.5781 113.033 70.4766 114.486 72.5234C115.955 74.5703 117.986 75.5938 120.58 75.5938C123.205 75.5938 125.22 74.5938 126.627 72.5938C128.048 70.5938 128.759 67.6719 128.759 63.8281V62.0469ZM160.297 62.0469L168.148 45.875H174.711L163.273 67.4375V80H157.32V67.4375L145.859 45.875H152.445L160.297 62.0469ZM203.6 72.0547H190.381L187.616 80H181.452L194.342 45.875H199.663L212.577 80H206.389L203.6 72.0547ZM192.045 67.2734H201.936L196.991 53.1172L192.045 67.2734ZM231.997 75.2656H247.489V80H226.067V45.875H231.997V75.2656Z" fill="#421010"/>
<path d="M80.4406 66.8516H73.8313V80H67.9016V45.875H79.9016C83.8391 45.875 86.8781 46.7578 89.0188 48.5234C91.1594 50.2891 92.2297 52.8438 92.2297 56.1875C92.2297 58.4688 91.675 60.3828 90.5656 61.9297C89.4719 63.4609 87.9406 64.6406 85.9719 65.4688L93.6359 79.6953V80H87.2844L80.4406 66.8516ZM73.8313 62.0938H79.925C81.925 62.0938 83.4875 61.5938 84.6125 60.5938C85.7375 59.5781 86.3 58.1953 86.3 56.4453C86.3 54.6172 85.7766 53.2031 84.7297 52.2031C83.6984 51.2031 82.1516 50.6875 80.0891 50.6562H73.8313V62.0938ZM134.689 63.8281C134.689 67.1719 134.111 70.1094 132.955 72.6406C131.798 75.1562 130.142 77.0938 127.986 78.4531C125.845 79.7969 123.377 80.4688 120.58 80.4688C117.814 80.4688 115.345 79.7969 113.173 78.4531C111.017 77.0938 109.345 75.1641 108.158 72.6641C106.986 70.1641 106.392 67.2812 106.377 64.0156V62.0938C106.377 58.7656 106.963 55.8281 108.134 53.2812C109.322 50.7344 110.986 48.7891 113.127 47.4453C115.283 46.0859 117.752 45.4062 120.533 45.4062C123.314 45.4062 125.775 46.0781 127.916 47.4219C130.072 48.75 131.736 50.6719 132.908 53.1875C134.08 55.6875 134.673 58.6016 134.689 61.9297V63.8281ZM128.759 62.0469C128.759 58.2656 128.041 55.3672 126.603 53.3516C125.181 51.3359 123.158 50.3281 120.533 50.3281C117.97 50.3281 115.963 51.3359 114.509 53.3516C113.072 55.3516 112.338 58.1875 112.306 61.8594V63.8281C112.306 67.5781 113.033 70.4766 114.486 72.5234C115.955 74.5703 117.986 75.5938 120.58 75.5938C123.205 75.5938 125.22 74.5938 126.627 72.5938C128.048 70.5938 128.759 67.6719 128.759 63.8281V62.0469ZM160.297 62.0469L168.148 45.875H174.711L163.273 67.4375V80H157.32V67.4375L145.859 45.875H152.445L160.297 62.0469ZM203.6 72.0547H190.381L187.616 80H181.452L194.342 45.875H199.663L212.577 80H206.389L203.6 72.0547ZM192.045 67.2734H201.936L196.991 53.1172L192.045 67.2734ZM231.997 75.2656H247.489V80H226.067V45.875H231.997V75.2656Z" fill="url(#paint1_linear)"/>
</g>
<path d="M80.4406 66.8516L81.3277 66.3899L81.0475 65.8516H80.4406V66.8516ZM73.8313 66.8516V65.8516H72.8313V66.8516H73.8313ZM73.8313 80V81H74.8313V80H73.8313ZM67.9016 80H66.9016V81H67.9016V80ZM67.9016 45.875V44.875H66.9016V45.875H67.9016ZM90.5656 61.9297L89.753 61.3469L89.7519 61.3484L90.5656 61.9297ZM85.9719 65.4688L85.5841 64.547L84.5694 64.9738L85.0915 65.943L85.9719 65.4688ZM93.6359 79.6953H94.6359V79.4431L94.5163 79.221L93.6359 79.6953ZM93.6359 80V81H94.6359V80H93.6359ZM87.2844 80L86.3973 80.4617L86.6775 81H87.2844V80ZM73.8313 62.0938H72.8313V63.0938H73.8313V62.0938ZM84.6125 60.5938L85.2769 61.3412L85.2826 61.336L84.6125 60.5938ZM84.7297 52.2031L84.0335 52.921L84.039 52.9262L84.7297 52.2031ZM80.0891 50.6562L80.1042 49.6564L80.0966 49.6562H80.0891V50.6562ZM73.8313 50.6562V49.6562H72.8313V50.6562H73.8313ZM80.4406 65.8516H73.8313V67.8516H80.4406V65.8516ZM72.8313 66.8516V80H74.8313V66.8516H72.8313ZM73.8313 79H67.9016V81H73.8313V79ZM68.9016 80V45.875H66.9016V80H68.9016ZM67.9016 46.875H79.9016V44.875H67.9016V46.875ZM79.9016 46.875C83.7025 46.875 86.483 47.7281 88.3825 49.2949L89.6551 47.752C87.2733 45.7875 83.9757 44.875 79.9016 44.875V46.875ZM88.3825 49.2949C90.2453 50.8314 91.2297 53.0747 91.2297 56.1875H93.2297C93.2297 52.6128 92.0735 49.7468 89.6551 47.752L88.3825 49.2949ZM91.2297 56.1875C91.2297 58.3021 90.7179 60.0014 89.753 61.3469L91.3783 62.5125C92.6321 60.7642 93.2297 58.6354 93.2297 56.1875H91.2297ZM89.7519 61.3484C88.7798 62.7093 87.4057 63.7808 85.5841 64.547L86.3596 66.3905C88.4756 65.5005 90.1639 64.2125 91.3794 62.5109L89.7519 61.3484ZM85.0915 65.943L92.7556 80.1696L94.5163 79.221L86.8523 64.9945L85.0915 65.943ZM92.6359 79.6953V80H94.6359V79.6953H92.6359ZM93.6359 79H87.2844V81H93.6359V79ZM88.1714 79.5383L81.3277 66.3899L79.5536 67.3133L86.3973 80.4617L88.1714 79.5383ZM73.8313 63.0938H79.925V61.0938H73.8313V63.0938ZM79.925 63.0938C82.0881 63.0938 83.9157 62.5511 85.2769 61.3412L83.9481 59.8463C83.0593 60.6364 81.7619 61.0938 79.925 61.0938V63.0938ZM85.2826 61.336C86.6509 60.1007 87.3 58.4301 87.3 56.4453H85.3C85.3 57.9605 84.8241 59.0555 83.9424 59.8515L85.2826 61.336ZM87.3 56.4453C87.3 54.4201 86.7138 52.7155 85.4204 51.48L84.039 52.9262C84.8393 53.6908 85.3 54.8142 85.3 56.4453H87.3ZM85.4258 51.4852C84.1454 50.2436 82.3108 49.6898 80.1042 49.6564L80.0739 51.6561C81.9924 51.6852 83.2515 52.1626 84.0335 52.921L85.4258 51.4852ZM80.0891 49.6562H73.8313V51.6562H80.0891V49.6562ZM72.8313 50.6562V62.0938H74.8313V50.6562H72.8313ZM132.955 72.6406L133.863 73.0583L133.864 73.0561L132.955 72.6406ZM127.986 78.4531L128.518 79.3001L128.519 79.2991L127.986 78.4531ZM113.173 78.4531L112.64 79.2991L112.647 79.3035L113.173 78.4531ZM108.158 72.6641L107.252 73.0885L107.255 73.0931L108.158 72.6641ZM106.377 64.0156H105.377L105.377 64.0204L106.377 64.0156ZM108.134 53.2812L107.228 52.8587L107.226 52.8633L108.134 53.2812ZM113.127 47.4453L113.658 48.2923L113.66 48.2912L113.127 47.4453ZM127.916 47.4219L127.384 48.2689L127.391 48.2733L127.916 47.4219ZM132.908 53.1875L132.001 53.6098L132.002 53.6119L132.908 53.1875ZM134.689 61.9297L135.689 61.9297L135.689 61.925L134.689 61.9297ZM126.603 53.3516L125.786 53.928L125.789 53.9322L126.603 53.3516ZM114.509 53.3516L113.698 52.7668L113.697 52.7679L114.509 53.3516ZM112.306 61.8594L111.306 61.8509V61.8594H112.306ZM114.486 72.5234L113.671 73.1023L113.673 73.1064L114.486 72.5234ZM126.627 72.5938L125.812 72.0143L125.809 72.0186L126.627 72.5938ZM133.689 63.8281C133.689 67.0569 133.131 69.8479 132.045 72.2251L133.864 73.0561C135.091 70.3709 135.689 67.2868 135.689 63.8281H133.689ZM132.046 72.223C130.963 74.5783 129.431 76.3601 127.453 77.6072L128.519 79.2991C130.854 77.8274 132.633 75.7342 133.863 73.0583L132.046 72.223ZM127.454 77.6062C125.49 78.8394 123.209 79.4688 120.58 79.4688V81.4688C123.544 81.4688 126.201 80.7543 128.518 79.3001L127.454 77.6062ZM120.58 79.4688C117.984 79.4688 115.7 78.8406 113.7 77.6027L112.647 79.3035C114.99 80.7532 117.644 81.4688 120.58 81.4688V79.4688ZM113.707 77.6072C111.725 76.3576 110.175 74.5791 109.061 72.235L107.255 73.0931C108.516 75.7491 110.31 77.8299 112.64 79.2991L113.707 77.6072ZM109.063 72.2396C107.963 69.8928 107.392 67.1576 107.377 64.0108L105.377 64.0204C105.393 67.4049 106.009 70.4353 107.252 73.0885L109.063 72.2396ZM107.377 64.0156V62.0938H105.377V64.0156H107.377ZM107.377 62.0938C107.377 58.8833 107.942 56.0928 109.043 53.6992L107.226 52.8633C105.984 55.5635 105.377 58.648 105.377 62.0938H107.377ZM109.041 53.7038C110.156 51.3113 111.699 49.5224 113.658 48.2923L112.595 46.5984C110.273 48.0558 108.488 50.1574 107.228 52.8587L109.041 53.7038ZM113.66 48.2912C115.642 47.0416 117.922 46.4062 120.533 46.4062V44.4062C117.581 44.4062 114.924 45.1302 112.593 46.5994L113.66 48.2912ZM120.533 46.4062C123.146 46.4062 125.418 47.035 127.384 48.2688L128.447 46.5749C126.132 45.1213 123.483 44.4062 120.533 44.4062V46.4062ZM127.391 48.2733C129.365 49.4891 130.904 51.2538 132.001 53.6098L133.814 52.7652C132.568 50.09 130.779 48.0109 128.44 46.5704L127.391 48.2733ZM132.002 53.6119C133.101 55.9564 133.674 58.7221 133.689 61.9344L135.689 61.925C135.673 58.4811 135.058 55.4186 133.813 52.7631L132.002 53.6119ZM133.689 61.9297V63.8281H135.689V61.9297H133.689ZM129.759 62.0469C129.759 58.1605 129.024 55.0241 127.417 52.7709L125.789 53.9322C127.057 55.7103 127.759 58.3708 127.759 62.0469H129.759ZM127.42 52.7751C125.797 50.4744 123.458 49.3281 120.533 49.3281V51.3281C122.857 51.3281 124.565 52.1974 125.786 53.928L127.42 52.7751ZM120.533 49.3281C117.661 49.3281 115.346 50.4809 113.698 52.7668L115.321 53.9364C116.579 52.191 118.28 51.3281 120.533 51.3281V49.3281ZM113.697 52.7679C112.093 54.9996 111.338 58.0684 111.306 61.8509L113.306 61.8679C113.337 58.3066 114.05 55.7036 115.321 53.9352L113.697 52.7679ZM111.306 61.8594V63.8281H113.306V61.8594H111.306ZM111.306 63.8281C111.306 67.6886 112.051 70.8215 113.671 73.1023L115.301 71.9446C114.014 70.1316 113.306 67.4676 113.306 63.8281H111.306ZM113.673 73.1064C115.337 75.4241 117.675 76.5938 120.58 76.5938V74.5938C118.297 74.5938 116.573 73.7165 115.298 71.9404L113.673 73.1064ZM120.58 76.5938C123.502 76.5938 125.835 75.4575 127.445 73.1689L125.809 72.0186C124.605 73.73 122.907 74.5938 120.58 74.5938V76.5938ZM127.442 73.1732C129.035 70.9326 129.759 67.7703 129.759 63.8281H127.759C127.759 67.5734 127.062 70.2549 125.812 72.0143L127.442 73.1732ZM129.759 63.8281V62.0469H127.759V63.8281H129.759ZM160.297 62.0469L159.397 62.4836L160.297 64.3365L161.196 62.4836L160.297 62.0469ZM168.148 45.875V44.875H167.522L167.249 45.4382L168.148 45.875ZM174.711 45.875L175.594 46.3436L176.373 44.875H174.711V45.875ZM163.273 67.4375L162.39 66.9689L162.273 67.1887V67.4375H163.273ZM163.273 80V81H164.273V80H163.273ZM157.32 80H156.32V81H157.32V80ZM157.32 67.4375H158.32V67.1882L158.203 66.9682L157.32 67.4375ZM145.859 45.875V44.875H144.195L144.976 46.3443L145.859 45.875ZM152.445 45.875L153.345 45.4382L153.071 44.875H152.445V45.875ZM161.196 62.4836L169.048 46.3118L167.249 45.4382L159.397 61.6101L161.196 62.4836ZM168.148 46.875H174.711V44.875H168.148V46.875ZM173.828 45.4064L162.39 66.9689L164.157 67.9061L175.594 46.3436L173.828 45.4064ZM162.273 67.4375V80H164.273V67.4375H162.273ZM163.273 79H157.32V81H163.273V79ZM158.32 80V67.4375H156.32V80H158.32ZM158.203 66.9682L146.742 45.4057L144.976 46.3443L156.437 67.9068L158.203 66.9682ZM145.859 46.875H152.445V44.875H145.859V46.875ZM151.546 46.3118L159.397 62.4836L161.196 61.6101L153.345 45.4382L151.546 46.3118ZM203.6 72.0547L204.544 71.7235L204.309 71.0547H203.6V72.0547ZM190.381 72.0547V71.0547H189.67L189.437 71.726L190.381 72.0547ZM187.616 80V81H188.326L188.56 80.3287L187.616 80ZM181.452 80L180.516 79.6466L180.005 81H181.452V80ZM194.342 45.875V44.875H193.651L193.407 45.5216L194.342 45.875ZM199.663 45.875L200.598 45.5211L200.353 44.875H199.663V45.875ZM212.577 80V81H214.024L213.512 79.6461L212.577 80ZM206.389 80L205.446 80.3312L205.68 81H206.389V80ZM192.045 67.2734L191.101 66.9436L190.637 68.2734H192.045V67.2734ZM201.936 67.2734V68.2734H203.345L202.88 66.9436L201.936 67.2734ZM196.991 53.1172L197.935 52.7874L196.991 50.085L196.047 52.7874L196.991 53.1172ZM203.6 71.0547H190.381V73.0547H203.6V71.0547ZM189.437 71.726L186.671 79.6713L188.56 80.3287L191.326 72.3834L189.437 71.726ZM187.616 79H181.452V81H187.616V79ZM182.387 80.3534L195.278 46.2284L193.407 45.5216L180.516 79.6466L182.387 80.3534ZM194.342 46.875H199.663V44.875H194.342V46.875ZM198.727 46.2289L211.641 80.3539L213.512 79.6461L200.598 45.5211L198.727 46.2289ZM212.577 79H206.389V81H212.577V79ZM207.333 79.6688L204.544 71.7235L202.656 72.3859L205.446 80.3312L207.333 79.6688ZM192.045 68.2734H201.936V66.2734H192.045V68.2734ZM202.88 66.9436L197.935 52.7874L196.047 53.447L200.992 67.6032L202.88 66.9436ZM196.047 52.7874L191.101 66.9436L192.989 67.6032L197.935 53.447L196.047 52.7874ZM231.997 75.2656H230.997V76.2656H231.997V75.2656ZM247.489 75.2656H248.489V74.2656H247.489V75.2656ZM247.489 80V81H248.489V80H247.489ZM226.067 80H225.067V81H226.067V80ZM226.067 45.875V44.875H225.067V45.875H226.067ZM231.997 45.875H232.997V44.875H231.997V45.875ZM231.997 76.2656H247.489V74.2656H231.997V76.2656ZM246.489 75.2656V80H248.489V75.2656H246.489ZM247.489 79H226.067V81H247.489V79ZM227.067 80V45.875H225.067V80H227.067ZM226.067 46.875H231.997V44.875H226.067V46.875ZM230.997 45.875V75.2656H232.997V45.875H230.997Z" fill="#421010"/>
<defs>
<filter id="filter0_d" x="0" y="0" width="312" height="162" filterUnits="userSpaceOnUse" color-interpolation-filters="sRGB">
<feFlood flood-opacity="0" result="BackgroundImageFix"/>
<feColorMatrix in="SourceAlpha" type="matrix" values="0 0 0 0 0 0 0 0 0 0 0 0 0 0 0 0 0 0 127 0"/>
<feOffset dy="4"/>
<feGaussianBlur stdDeviation="2"/>
<feColorMatrix type="matrix" values="0 0 0 0 0 0 0 0 0 0 0 0 0 0 0 0 0 0 0.25 0"/>
<feBlend mode="normal" in2="BackgroundImageFix" result="effect1_dropShadow"/>
<feBlend mode="normal" in="SourceGraphic" in2="effect1_dropShadow" result="shape"/>
</filter>
<filter id="filter1_i" x="93.0941" y="84.2031" width="126.941" height="22.5312" filterUnits="userSpaceOnUse" color-interpolation-filters="sRGB">
<feFlood flood-opacity="0" result="BackgroundImageFix"/>
<feBlend mode="normal" in="SourceGraphic" in2="BackgroundImageFix" result="shape"/>
<feColorMatrix in="SourceAlpha" type="matrix" values="0 0 0 0 0 0 0 0 0 0 0 0 0 0 0 0 0 0 127 0" result="hardAlpha"/>
<feOffset dy="4"/>
<feGaussianBlur stdDeviation="2"/>
<feComposite in2="hardAlpha" operator="arithmetic" k2="-1" k3="1"/>
<feColorMatrix type="matrix" values="0 0 0 0 0 0 0 0 0 0 0 0 0 0 0 0 0 0 0.25 0"/>
<feBlend mode="normal" in2="shape" result="effect1_innerShadow"/>
</filter>
<filter id="filter2_i" x="66.9016" y="44.4062" width="181.587" height="41.0625" filterUnits="userSpaceOnUse" color-interpolation-filters="sRGB">
<feFlood flood-opacity="0" result="BackgroundImageFix"/>
<feBlend mode="normal" in="SourceGraphic" in2="BackgroundImageFix" result="shape"/>
<feColorMatrix in="SourceAlpha" type="matrix" values="0 0 0 0 0 0 0 0 0 0 0 0 0 0 0 0 0 0 127 0" result="hardAlpha"/>
<feOffset dy="4"/>
<feGaussianBlur stdDeviation="2"/>
<feComposite in2="hardAlpha" operator="arithmetic" k2="-1" k3="1"/>
<feColorMatrix type="matrix" values="0 0 0 0 0 0 0 0 0 0 0 0 0 0 0 0 0 0 0.25 0"/>
<feBlend mode="normal" in2="shape" result="effect1_innerShadow"/>
</filter>
<linearGradient id="paint0_linear" x1="156.5" y1="80" x2="156.5" y2="108" gradientUnits="userSpaceOnUse">
<stop stop-color="white"/>
<stop offset="1" stop-color="white" stop-opacity="0"/>
</linearGradient>
<linearGradient id="paint1_linear" x1="156.5" y1="36" x2="156.5" y2="92" gradientUnits="userSpaceOnUse">
<stop stop-color="white"/>
<stop offset="1" stop-color="white" stop-opacity="0"/>
</linearGradient>
</defs>
</svg>

